<?xml version="1.0" encoding="utf-8"?>
<!-- Generator: Adobe Illustrator 23.0.2, SVG Export Plug-In . SVG Version: 6.00 Build 0)  -->
<svg version="1.1" id="Layer_1" xmlns="http://www.w3.org/2000/svg" xmlns:xlink="http://www.w3.org/1999/xlink" x="0px" y="0px"
	 viewBox="0 0 1080 1080" style="enable-background:new 0 0 1080 1080;" xml:space="preserve">
<style type="text/css">
	.st0{fill:#FF7F66;}
	.st1{fill:#FFA694;}
</style>
<path class="st0" d="M753.3,1080H326.7C146.3,1080,0,933.7,0,753.3V326.7C0,146.3,146.3,0,326.7,0h426.5
	C933.7,0,1080,146.3,1080,326.7v426.5C1080,933.7,933.7,1080,753.3,1080z"/>
<path class="st1" d="M916.6,1079.2H692.4c-90.2,0-163.4-73.1-163.4-163.4V691.7c0-90.2,73.1-163.4,163.4-163.4h224.2
	c90.2,0,163.4,73.1,163.4,163.4v224.2C1080,1006.1,1006.9,1079.2,916.6,1079.2z"/>
</svg>
